<svg viewBox="0 0 776.24 132.67" focusable="false" class="chakra-icon css-17jl8kj" aria-hidden="true"><title>Motorq</title><g fill="currentColor"><path d="M92.02,5.23l-27.29,64.37c-.77,1.88-1.58,3.98-2.34,6.02-.76-2.05-1.57-4.16-2.35-6.06L32.76,5.23H9.87L0,127.42H23.7l5.64-73.85,23.43,53.23h19.22l23.47-52.94,5.79,73.55h23.52L114.91,5.23h-22.89Z"></path><polygon points="280.87 26.77 320.16 26.77 320.16 127.42 343.81 127.42 343.81 26.77 383.1 26.77 383.1 5.23 280.87 5.23 280.87 26.77"></polygon><path d="M607.68,75.42c11.56-5.77,18.79-18.15,18.79-32.79,0-16.28-8.35-29.52-21.79-34.56-4.72-1.75-10.17-2.84-22.75-2.84h-38.86V127.42h23.66v-45.62h18.44l24.19,45.62h26.86l-27.44-50.14c-.39-.69-.76-1.31-1.1-1.87Zm-40.95-48.65h14.71c8.22,0,11.45,.83,13.91,2.12,4.74,2.63,7.14,7.47,7.14,14.38,0,10.8-6.02,16.99-16.5,16.99h-19.26V26.77Z"></path><path d="M762.37,103.11c7.87-10.76,12.17-23.92,12.17-37.44,0-34.99-27.55-62.4-62.72-62.4s-62.56,27.41-62.56,62.4,27.48,63.69,62.56,63.69c13.4,0,25.78-3.83,36.02-11.12l13.75,13.75,14.66-15.67-13.88-13.22Zm-44.49-13.78l12.84,12.53c-5.48,3.23-12.38,5.15-18.89,5.15-21.9,0-38.42-17.77-38.42-41.34s16.52-40.2,38.42-40.2,38.58,17.28,38.58,40.2c0,7.28-1.9,14.61-5.29,20.74l-12.58-12.74-14.65,15.65Z"></path><path d="M274.24,75.22c.39-2.91,.66-5.86,.66-8.88s-.25-5.76-.62-8.58l-13.55-4.66c-1.27-5.02-3.23-9.75-5.8-14.09l6.29-12.89c-3.54-4.63-7.66-8.77-12.28-12.32l-12.87,6.28c-4.37-2.61-9.13-4.6-14.18-5.89l-4.66-13.56c-2.85-.37-5.73-.63-8.68-.63s-5.83,.26-8.68,.63l-4.66,13.56c-5.06,1.29-9.81,3.28-14.18,5.89l-12.87-6.28c-4.62,3.55-8.74,7.69-12.28,12.32l6.29,12.89c-2.57,4.35-4.53,9.08-5.8,14.09l-13.55,4.66c-.36,2.82-.62,5.66-.62,8.58s.27,5.97,.66,8.88l13.58,4.67c1.29,4.95,3.25,9.62,5.8,13.91l-6.29,12.87c3.58,4.66,7.75,8.81,12.42,12.38l12.9-6.3c4.27,2.51,8.9,4.44,13.82,5.7l4.67,13.57c2.88,.38,5.8,.65,8.78,.65s5.9-.26,8.78-.65l4.67-13.57c4.91-1.27,9.55-3.19,13.82-5.7l12.9,6.3c4.67-3.56,8.84-7.72,12.42-12.38l-6.29-12.87c2.55-4.29,4.51-8.96,5.8-13.91l13.58-4.67Zm-65.67,22.7c-17.44,0-31.58-14.14-31.58-31.58s14.14-31.58,31.58-31.58,31.58,14.14,31.58,31.58-14.14,31.58-31.58,31.58Z"></path><path d="M520.75,75.22c.39-2.91,.66-5.86,.66-8.88s-.25-5.76-.62-8.58l-13.55-4.66c-1.27-5.02-3.23-9.75-5.8-14.09l6.29-12.89c-3.54-4.63-7.66-8.77-12.28-12.32l-12.87,6.28c-4.37-2.61-9.13-4.6-14.18-5.89l-4.66-13.56c-2.85-.37-5.73-.63-8.68-.63s-5.83,.26-8.68,.63l-4.66,13.56c-5.06,1.29-9.81,3.28-14.18,5.89l-12.87-6.28c-4.62,3.55-8.74,7.69-12.28,12.32l6.29,12.89c-2.57,4.35-4.53,9.08-5.8,14.09l-13.55,4.66c-.36,2.82-.62,5.66-.62,8.58s.27,5.97,.66,8.88l13.58,4.67c1.29,4.95,3.25,9.62,5.8,13.91l-6.29,12.87c3.58,4.66,7.75,8.81,12.42,12.38l12.9-6.3c4.27,2.51,8.9,4.44,13.82,5.7l4.67,13.57c2.88,.38,5.8,.65,8.78,.65s5.9-.26,8.78-.65l4.67-13.57c4.91-1.27,9.55-3.19,13.82-5.7l12.9,6.3c4.67-3.56,8.84-7.72,12.42-12.38l-6.29-12.87c2.55-4.29,4.51-8.96,5.8-13.91l13.58-4.67Zm-65.67,22.7c-17.44,0-31.58-14.14-31.58-31.58s14.14-31.58,31.58-31.58,31.58,14.14,31.58,31.58-14.14,31.58-31.58,31.58Z"></path></g></svg>