<?xml version="1.0" encoding="UTF-8"?>
<svg version="1.1" viewBox="0 0 2048 460" width="1280" height="1280" xmlns="http://www.w3.org/2000/svg">
<path transform="translate(0)" d="m0 0h2048v460h-2048z" fill="#FEFEFE"/>
<path transform="translate(1818,72)" d="m0 0h31l20 3 24 7 16 7 12 7 20 15v2h2v2h2v2h2l7 8 11 14 10 18 7 15 6 19 4 20v34l-3 18-5 17-8 19-9 17-1 7 9 10 10 10 7 8 1 1v6l-12 13-6 6h-2v2l-5 5h-2v2h-3v2l-3 2h-5l-3-2v-2l-4-2-8-7-7-8-7-6h-7l-26 12-21 7-14 3-17 2h-17l-15-2-26-7-19-8-21-12-13-10-9-9-2-1v-2h-2l-8-10-10-15-8-16-6-15-5-19-3-22v-19l2-18 4-18 6-18 8-16 7-12 9-12 12-13 14-11 15-10 21-10 20-6z" fill="#2667EE"/>
<path transform="translate(1182,62)" d="m0 0h18l10 2 5 6 6 16 7 9 8 6 10 5 4 1h16l12-3 11-5 8 1 9 7 8 8 6 8 1 2v7l-6 13-2 7v16l4 12 7 11 10 8 15 6 5 3 3 4 1 3v28l-3 7-8 4-10 4-9 5h-2l-2 4-8 13-3 10v15l4 12 4 9v8l-7 9-12 11-6 4-5 1-18-7-9-2h-8l-12 3-13 7-7 8-6 12-4 10-6 5-6 1h-21l-8-2-5-6-6-15-7-10-10-7-9-4-9-2h-8l-12 3-12 5-5 1-8-4-15-14-5-7v-9l6-13 2-8v-12l-3-12-6-10-6-7-16-8-10-4-3-4-1-3v-30l4-6 5-3 16-7 5-4h2v-2h2l9-18 2-7v-13l-4-13-4-9v-8l7-9 13-13 6-3 8 1 12 5 14 3 11-1 12-5 11-8 7-10 6-16 5-4z" fill="#2667EE"/>
<path transform="translate(563,63)" d="m0 0h22l9 2 4 4 6 16 4 10 5 4 21 9 11 2 10-4 16-7 7 1 10 7 7 6 9 13v8l-10 21v9l6 16 7 14 4 3 22 7 5 5 2 5 1 7v17l-2 9-3 5-16 6-12 5-6 10-8 21v8l10 22v8l-6 9-11 11-8 6-9 1-20-10-7-1-16 5-16 8-4 4-8 23-5 5-5 2-7 1h-15l-10-2-5-3-4-8-6-17-2-4-15-8-15-5-8-1-23 11-9-1-11-8-7-7-7-10-1-6 4-10 7-15v-7l-6-17-7-14-10-5-17-6-5-5-2-8v-21l2-9 7-6 20-7 6-5 8-17 4-12-1-9-9-19v-9l7-11 9-9 11-7 8 1 20 9 6 1 12-3 16-7 4-3h2l2-5 8-22 5-5z" fill="#2667EE"/>
<path transform="translate(79,76)" d="m0 0h53l5 5 7 15 20 48 20 47 18 43 4 9 5-1 11-25 13-31 19-45 18-43 7-16 4-5 2-1h53l3 5 17 210 6 74v14l-4 3h-51l-4-4-3-31-10-124-2-16-4 4-16 36-13 30-15 34-6 13-4 5-7 2h-33l-7-2-5-6-19-43-17-39-12-27-4-6-2-1-3 36-10 123-2 13-3 3h-51l-4-2-1-6 19-236 4-49 1-9z" fill="#2667EE"/>
<path transform="translate(1415,76)" d="m0 0h111l22 2 15 4 11 4 10 6 11 9 10 12 8 16 5 17 2 11v27l-4 18-7 16-9 13-4 5h-2v2h-2v2l-4 3h-2v2l-5 5-2 3v6l11 21 13 23 17 32 24 44v3h-41l-24-2-5-3-15-29-10-19-15-28-14-27-5-5h-40l-3 1v108l-4 4h-52l-4-3v-300z" fill="#2667EE"/>
<path transform="translate(759,76)" d="m0 0h249l3 3v48l-4 3-91 1-2 2-1 246-3 2h-53l-3-1-1-247-3-2-90-1-4-2-1-3v-44l2-4z" fill="#2667EE"/>
<path transform="translate(1824,127)" d="m0 0h19l20 4 12 5 14 8 13 11 11 14 10 19 5 16 2 11v26l-4 19-5 13-3 2-5-1-21-21-4-2-5 1-8 7-20 20-2 3v7l5 6v2l4 2 3 3v2l4 2 10 10-1 4-9 4-21 5h-28l-15-3-15-6-11-7-3-2v-2l-6-3v-2l-4-2-9-11-8-14-6-15-4-18-1-9v-13l3-19 6-18 8-16 8-11h2l2-4 3-3h2v-2l5-2v-2l7-4 15-8 13-4z" fill="#FEFEFE"/>
<path transform="translate(1184,150)" d="m0 0h14l16 3 15 6 13 9 12 12 8 13 5 12 3 14v20l-4 16-5 12-10 14-9 9-14 9-12 5-12 3-15 1-19-3-13-5-12-7-10-9-8-9-6-10-5-13-3-14v-19l4-16 5-12 9-13 11-11 13-8 14-6z" fill="#FEFEFE"/>
<path transform="translate(567,150)" d="m0 0h14l15 3 11 4 11 6 10 8 8 8 9 14 6 16 2 11v17l-3 15-7 16-7 10-9 10-11 8-14 7-16 4-14 1-19-3-13-5-12-7-10-9-8-9-8-14-5-15-1-6v-23l4-15 8-16 7-9 10-10 14-9 13-5z" fill="#FEFEFE"/>
<path transform="translate(1475,130)" d="m0 0h54l11 4 6 4 7 7 6 12 1 4v21l-4 11-6 9-11 8-9 3h-56l-2-3-1-5v-71z" fill="#FEFEFE"/>
</svg>
